<svg width="111" height="31" viewBox="0 0 111 31" fill="none" xmlns="http://www.w3.org/2000/svg">
<path d="M0.980114 30V25.625L1.80398 25.5824C2.9214 25.5161 3.80682 25.1136 4.46023 24.375C5.12311 23.6364 5.6108 22.4479 5.9233 20.8097C6.24527 19.1714 6.45833 16.9744 6.5625 14.2188L7.04545 0.90909H26.108V30H20.9517V5.24148H11.9602L11.5057 15.8523C11.3731 19.0341 11.0227 21.6714 10.4545 23.7642C9.89583 25.857 8.97727 27.4195 7.69886 28.4517C6.42992 29.4839 4.66383 30 2.40057 30H0.980114ZM57.848 15.4545C57.848 18.589 57.2609 21.2737 56.0866 23.5085C54.9219 25.7339 53.331 27.4384 51.3139 28.6222C49.3063 29.8059 47.0289 30.3977 44.4815 30.3977C41.9342 30.3977 39.652 29.8059 37.6349 28.6222C35.6274 27.429 34.0365 25.7197 32.8622 23.4943C31.6974 21.2595 31.1151 18.5795 31.1151 15.4545C31.1151 12.3201 31.6974 9.64015 32.8622 7.41477C34.0365 5.17992 35.6274 3.47064 37.6349 2.28693C39.652 1.10322 41.9342 0.511363 44.4815 0.511363C47.0289 0.511363 49.3063 1.10322 51.3139 2.28693C53.331 3.47064 54.9219 5.17992 56.0866 7.41477C57.2609 9.64015 57.848 12.3201 57.848 15.4545ZM52.5497 15.4545C52.5497 13.2481 52.2041 11.3873 51.5128 9.87216C50.831 8.34754 49.884 7.19697 48.6719 6.42045C47.4598 5.63447 46.063 5.24148 44.4815 5.24148C42.9001 5.24148 41.5033 5.63447 40.2912 6.42045C39.0791 7.19697 38.1274 8.34754 37.4361 9.87216C36.7543 11.3873 36.4134 13.2481 36.4134 15.4545C36.4134 17.661 36.7543 19.5265 37.4361 21.0511C38.1274 22.5663 39.0791 23.7169 40.2912 24.5028C41.5033 25.2794 42.9001 25.6676 44.4815 25.6676C46.063 25.6676 47.4598 25.2794 48.6719 24.5028C49.884 23.7169 50.831 22.5663 51.5128 21.0511C52.2041 19.5265 52.5497 17.661 52.5497 15.4545Z" fill="#74CBDE"/>
<path d="M81.5376 0.90909V5.3267H68.1001V30H62.8303V0.90909H81.5376ZM110.7 15.4545C110.7 18.589 110.112 21.2737 108.938 23.5085C107.773 25.7339 106.183 27.4384 104.165 28.6222C102.158 29.8059 99.8804 30.3977 97.3331 30.3977C94.7857 30.3977 92.5036 29.8059 90.4865 28.6222C88.4789 27.429 86.888 25.7197 85.7138 23.4943C84.549 21.2595 83.9666 18.5795 83.9666 15.4545C83.9666 12.3201 84.549 9.64015 85.7138 7.41477C86.888 5.17992 88.4789 3.47064 90.4865 2.28693C92.5036 1.10322 94.7857 0.511363 97.3331 0.511363C99.8804 0.511363 102.158 1.10322 104.165 2.28693C106.183 3.47064 107.773 5.17992 108.938 7.41477C110.112 9.64015 110.7 12.3201 110.7 15.4545ZM105.401 15.4545C105.401 13.2481 105.056 11.3873 104.364 9.87216C103.683 8.34754 102.736 7.19697 101.523 6.42045C100.311 5.63447 98.9145 5.24148 97.3331 5.24148C95.7517 5.24148 94.3549 5.63447 93.1428 6.42045C91.9306 7.19697 90.9789 8.34754 90.2876 9.87216C89.6058 11.3873 89.2649 13.2481 89.2649 15.4545C89.2649 17.661 89.6058 19.5265 90.2876 21.0511C90.9789 22.5663 91.9306 23.7169 93.1428 24.5028C94.3549 25.2794 95.7517 25.6676 97.3331 25.6676C98.9145 25.6676 100.311 25.2794 101.523 24.5028C102.736 23.7169 103.683 22.5663 104.364 21.0511C105.056 19.5265 105.401 17.661 105.401 15.4545Z" fill="#FF9144"/>
</svg>
