<svg width="34" height="34" viewBox="0 0 34 34" fill="none" xmlns="http://www.w3.org/2000/svg">
<path fill-rule="evenodd" clip-rule="evenodd" d="M17 29.7499C24.0416 29.7499 29.75 24.0415 29.75 16.9999C29.75 9.95838 24.0416 4.24992 17 4.24992C9.9585 4.24992 4.25004 9.95838 4.25004 16.9999C4.25004 24.0415 9.9585 29.7499 17 29.7499ZM17 31.1666C24.8243 31.1666 31.1667 24.8242 31.1667 16.9999C31.1667 9.17567 24.8243 2.83325 17 2.83325C9.17579 2.83325 2.83337 9.17567 2.83337 16.9999C2.83337 24.8242 9.17579 31.1666 17 31.1666Z" fill="black"/>
<path d="M8.5 25.2378C8.5 24.506 9.04683 23.8877 9.775 23.8069C15.2398 23.202 18.785 23.2565 24.2377 23.8204C24.51 23.849 24.7681 23.9562 24.9804 24.1291C25.1928 24.3019 25.3502 24.5329 25.4334 24.7937C25.5166 25.0545 25.5221 25.334 25.4492 25.5979C25.3762 25.8617 25.228 26.0987 25.0226 26.2797C18.5874 31.889 14.9097 31.8118 8.95333 26.2854C8.66292 26.0162 8.5 25.633 8.5 25.2378Z" fill="black"/>
<path fill-rule="evenodd" clip-rule="evenodd" d="M24.1649 24.5247C18.7553 23.9651 15.2611 23.9127 9.85229 24.5112C9.67425 24.5319 9.51011 24.6176 9.39131 24.7519C9.27251 24.8861 9.20739 25.0594 9.20842 25.2387C9.20842 25.4412 9.29271 25.6332 9.43509 25.7664C12.3874 28.5048 14.6243 29.7422 16.811 29.75C19.0054 29.7578 21.3627 28.5303 24.5573 25.7465C24.6588 25.6562 24.7318 25.5383 24.7676 25.4072C24.8033 25.2762 24.8003 25.1375 24.7587 25.0082C24.7171 24.8788 24.6389 24.7643 24.5335 24.6786C24.428 24.5929 24.3 24.539 24.1649 24.5247ZM9.69717 23.103C15.2193 22.4917 18.8162 22.547 24.3115 23.1158C24.7211 23.1585 25.1094 23.3198 25.4288 23.5798C25.7482 23.8399 25.9848 24.1874 26.1098 24.5798C26.2347 24.9723 26.2425 25.3926 26.1322 25.7894C26.0219 26.1863 25.7983 26.5423 25.4888 26.814C22.2481 29.6388 19.5494 31.1773 16.8067 31.1667C14.0563 31.1568 11.4765 29.5921 8.47246 26.8048C8.25738 26.6044 8.08592 26.3619 7.96879 26.0923C7.85167 25.8227 7.7914 25.5319 7.79175 25.2379C7.79072 24.7098 7.98456 24.1999 8.33615 23.8058C8.68774 23.4118 9.17236 23.162 9.69717 23.103Z" fill="black"/>
<path d="M22.6667 14.1667C22.6667 15.6696 22.0697 17.1109 21.007 18.1736C19.9443 19.2363 18.5029 19.8333 17 19.8333C15.4971 19.8333 14.0558 19.2363 12.9931 18.1736C11.9304 17.1109 11.3334 15.6696 11.3334 14.1667C11.3334 12.6638 11.9304 11.2224 12.9931 10.1597C14.0558 9.09702 15.4971 8.5 17 8.5C18.5029 8.5 19.9443 9.09702 21.007 10.1597C22.0697 11.2224 22.6667 12.6638 22.6667 14.1667Z" fill="black"/>
<path fill-rule="evenodd" clip-rule="evenodd" d="M17 18.4167C18.1272 18.4167 19.2082 17.9689 20.0052 17.1719C20.8023 16.3748 21.25 15.2938 21.25 14.1667C21.25 13.0395 20.8023 11.9585 20.0052 11.1615C19.2082 10.3644 18.1272 9.91667 17 9.91667C15.8729 9.91667 14.7919 10.3644 13.9948 11.1615C13.1978 11.9585 12.75 13.0395 12.75 14.1667C12.75 15.2938 13.1978 16.3748 13.9948 17.1719C14.7919 17.9689 15.8729 18.4167 17 18.4167ZM17 19.8333C18.5029 19.8333 19.9443 19.2363 21.007 18.1736C22.0697 17.1109 22.6667 15.6696 22.6667 14.1667C22.6667 12.6638 22.0697 11.2224 21.007 10.1597C19.9443 9.09702 18.5029 8.5 17 8.5C15.4971 8.5 14.0558 9.09702 12.9931 10.1597C11.9304 11.2224 11.3334 12.6638 11.3334 14.1667C11.3334 15.6696 11.9304 17.1109 12.9931 18.1736C14.0558 19.2363 15.4971 19.8333 17 19.8333Z" fill="black"/>
</svg>
